# File created by Blade
# Date/Time:  Tue Apr 07 20:22:14 2015
# Frame Rate: 120.000 fps
#------------------------------------------------------
:FULLY-SPECIFIED
:DEGREES
2016
root 1.048466 32.744717 -8.406286 15.636376 0.012551 1.281737
Spine -16.626261 -5.154747 -0.689164
Head 11.205669 -1.067047 0.171357
LeftShoulder -18.842742 46.223867 4.548768
LeftArm 52.095307 17.771132 -75.013065
LeftForeArm -4.317942 0.000000 17.837631
LeftHand 6.825394 -0.000000 -6.719990
LeftHandThumb1 -26.253704 0.000000 33.147579
RightShoulder -6.236163 -11.757013 -15.328146
RightArm 13.361659 -20.674107 88.884698
RightForeArm 7.997361 -0.000000 16.596027
RightHand 6.017922 -0.000000 7.442765
RightHandThumb1 -24.326973 -0.000000 -32.862282
LeftUpLeg -11.618511 -4.639374 0.593821
LeftLeg 0.114337 -0.000000 -0.000000
LeftFoot -6.846266 8.323353 -16.470853
LeftToeBase -8.600930 -0.000000 0.000000
RightUpLeg -8.013718 -2.566883 -0.795425
RightLeg -4.670466 -0.000000 0.000000
RightFoot -7.435756 -4.458897 8.554965
RightToeBase 1.054402 -0.000000 -0.000000
2017
root 1.043650 32.748251 -8.429327 15.566932 0.109936 1.316238
Spine -16.486026 -5.200822 -0.716111
Head 11.353143 -1.065238 0.146061
LeftShoulder -18.808382 46.178753 4.672469
LeftArm 52.034433 17.444384 -75.097490
LeftForeArm -4.299238 -0.000000 17.855376
LeftHand 6.824579 -0.000000 -6.651641
LeftHandThumb1 -26.253704 0.000000 33.147579
RightShoulder -6.250435 -11.739168 -15.350962
RightArm 13.363954 -20.452893 88.785110
RightForeArm 8.079126 0.000000 16.623029
RightHand 6.030114 0.000000 7.315977
RightHandThumb1 -24.326973 -0.000000 -32.862282
LeftUpLeg -11.646311 -4.597911 0.563431
LeftLeg 0.219469 -0.000000 -0.000000
LeftFoot -6.820255 8.193958 -16.422186
LeftToeBase -8.560071 -0.000000 0.000000
RightUpLeg -7.990614 -2.703711 -0.799868
RightLeg -4.627844 -0.000000 0.000000
RightFoot -7.478540 -4.370328 8.657876
RightToeBase 1.107972 -0.000000 -0.000000
2018
root 1.039866 32.751782 -8.452137 15.509315 0.197091 1.355025
Spine -16.360301 -5.235786 -0.750153
Head 11.500330 -1.070199 0.128454
LeftShoulder -18.807327 46.210517 4.765825
LeftArm 52.041640 17.032299 -75.201697
LeftForeArm -4.497237 0.000000 17.873171
LeftHand 6.782128 0.000000 -6.968442
LeftHandThumb1 -26.253704 0.000000 33.147579
RightShoulder -6.259036 -11.719218 -15.385553
RightArm 13.334412 -20.212431 88.702572
RightForeArm 7.915536 -0.000000 16.690252
RightHand 5.910460 -0.000000 6.982537
RightHandThumb1 -24.326973 -0.000000 -32.862282
LeftUpLeg -11.689934 -4.522968 0.519471
LeftLeg 0.333343 -0.000000 -0.000000
LeftFoot -6.776578 8.050221 -16.362626
LeftToeBase -8.544558 -0.000000 0.000000
RightUpLeg -7.997933 -2.859802 -0.804591
RightLeg -4.547301 -0.000000 0.000000
RightFoot -7.535766 -4.270889 8.703226
RightToeBase 1.154508 -0.000000 -0.000000
2019
root 1.036063 32.754342 -8.475055 15.462688 0.239553 1.387552
Spine -16.246988 -5.223383 -0.805167
Head 11.651282 -1.029081 0.144144
LeftShoulder -18.740003 46.217034 4.914448
LeftArm 51.986020 16.674498 -75.290778
LeftForeArm -4.256314 -0.000000 17.930913
LeftHand 6.784916 0.000000 -6.801374
LeftHandThumb1 -26.253704 0.000000 33.147579
RightShoulder -6.265673 -11.729407 -15.392633
RightArm 13.315188 -19.981723 88.589451
RightForeArm 7.858391 -0.000000 16.800558
RightHand 5.856514 0.000000 7.034994
RightHandThumb1 -24.326973 -0.000000 -32.862282
LeftUpLeg -11.747485 -4.423980 0.472204
LeftLeg 0.455053 -0.000000 -0.000000
LeftFoot -6.749198 7.932857 -16.286358
LeftToeBase -8.597247 -0.000000 0.000000
RightUpLeg -8.022510 -2.930574 -0.816932
RightLeg -4.466553 -0.000000 0.000000
RightFoot -7.587086 -4.233979 8.745035
RightToeBase 1.146655 -0.000000 -0.000000
2020
root 1.035069 32.756703 -8.498029 15.421399 0.289477 1.408035
Spine -16.142431 -5.201900 -0.835230
Head 11.799355 -1.019643 0.142282
LeftShoulder -18.695111 46.227463 5.031541
LeftArm 51.968364 16.341190 -75.340240
LeftForeArm -3.919957 -0.000000 17.971128
LeftHand 6.726162 -0.000000 -5.906074
LeftHandThumb1 -26.253704 0.000000 33.147579
RightShoulder -6.277053 -11.779758 -15.410309
RightArm 13.336547 -19.756303 88.467977
RightForeArm 7.781959 -0.000000 16.890575
RightHand 5.838430 -0.000000 6.803930
RightHandThumb1 -24.326973 -0.000000 -32.862282
LeftUpLeg -11.816992 -4.364820 0.438140
LeftLeg 0.591789 -0.000000 -0.000000
LeftFoot -6.747712 7.855877 -16.192811
LeftToeBase -8.592752 -0.000000 0.000000
RightUpLeg -8.045216 -2.917729 -0.833067
RightLeg -4.404377 -0.000000 0.000000
RightFoot -7.609477 -4.302601 8.752151
RightToeBase 1.221194 -0.000000 -0.000000
